<?xml version="1.0" encoding="UTF-8" standalone="no" ?>
<!DOCTYPE svg PUBLIC "-//W3C//DTD SVG 1.1//EN" "http://www.w3.org/Graphics/SVG/1.1/DTD/svg11.dtd">
<svg xmlns="http://www.w3.org/2000/svg" xmlns:xlink="http://www.w3.org/1999/xlink" version="1.1" width="400" height="400" viewBox="0 0 400 400" xml:space="preserve">
<desc>Created with Fabric.js 3.6.2</desc>
<defs>
</defs>
<g transform="matrix(0.39 0 0 0.39 200 200)" id="Layer_1"  >
<linearGradient id="SVGID_SVGID_1__1" gradientUnits="userSpaceOnUse" gradientTransform="matrix(1 0 0 1 -256 -256)"  x1="0.0000038" y1="256" x2="512" y2="256">
<stop offset="0%" style="stop-color:rgb(51,180,157);stop-opacity: 1"/>
<stop offset="100%" style="stop-color:rgb(0,161,133);stop-opacity: 1"/>
</linearGradient>
<circle style="stroke: none; stroke-width: 1; stroke-dasharray: none; stroke-linecap: butt; stroke-dashoffset: 0; stroke-linejoin: miter; stroke-miterlimit: 4; fill: url(#SVGID_SVGID_1__1); fill-rule: nonzero; opacity: 1;"  cx="0" cy="0" r="256" />
</g>
<g transform="matrix(0.39 0 0 0.39 200 200)" id="Layer_1"  >
<linearGradient id="SVGID_SVGID_2__2" gradientUnits="userSpaceOnUse" gradientTransform="matrix(1 0 0 1 0 0)"  x1="42.6666679" y1="256.0005188" x2="469.3333435" y2="256.0005188">
<stop offset="0%" style="stop-color:rgb(0,161,133);stop-opacity: 1"/>
<stop offset="100%" style="stop-color:rgb(51,180,157);stop-opacity: 1"/>
</linearGradient>
<path style="stroke: none; stroke-width: 1; stroke-dasharray: none; stroke-linecap: butt; stroke-dashoffset: 0; stroke-linejoin: miter; stroke-miterlimit: 4; fill: url(#SVGID_SVGID_2__2); fill-rule: nonzero; opacity: 1;"  transform=" translate(-256, -256)" d="M 256 469.3338623 c -117.6309357 0 -213.3333282 -95.7018738 -213.3333282 -213.3333435 c 0 -117.6309204 95.7023926 -213.333313 213.3333282 -213.333313 c 117.636261 0 213.3333435 95.7024002 213.3333435 213.333313 C 469.3333435 373.6319885 373.636261 469.3338623 256 469.3338623 z" stroke-linecap="round" />
</g>
<g transform="matrix(0.39 0 0 0.39 203.13 203.13)" id="XMLID_46_"  >
<polygon style="stroke: none; stroke-width: 1; stroke-dasharray: none; stroke-linecap: butt; stroke-dashoffset: 0; stroke-linejoin: miter; stroke-miterlimit: 4; fill: rgb(0,0,0); fill-rule: nonzero; opacity: 0.3;"  points="94.47,0 -94.47,120 -94.47,-120 " />
</g>
<g transform="matrix(0.39 0 0 0.39 200 200)" id="XMLID_819_"  >
<polygon style="stroke: none; stroke-width: 1; stroke-dasharray: none; stroke-linecap: butt; stroke-dashoffset: 0; stroke-linejoin: miter; stroke-miterlimit: 4; fill: rgb(255,255,255); fill-rule: nonzero; opacity: 1;"  points="94.47,0 -94.47,120 -94.47,-120 " />
</g>
</svg>