<?xml version="1.0" standalone="no"?>
<!DOCTYPE svg PUBLIC "-//W3C//DTD SVG 20010904//EN"
 "http://www.w3.org/TR/2001/REC-SVG-20010904/DTD/svg10.dtd">
<svg version="1.0" xmlns="http://www.w3.org/2000/svg"
 width="700.000000pt" height="700.000000pt" viewBox="0 0 700.000000 700.000000"
 preserveAspectRatio="xMidYMid meet">
<metadata>
Created by potrace 1.14, written by Peter Selinger 2001-2017
</metadata>
<g transform="translate(0.000000,700.000000) scale(0.100000,-0.100000)"
fill="#000000" stroke="none">
<path d="M3387 5244 c-1 -1 -36 -5 -76 -8 -295 -27 -606 -151 -859 -340 -388
-292 -627 -711 -689 -1206 -9 -74 -9 -300 0 -375 13 -105 17 -138 21 -144 3
-4 7 -25 11 -49 11 -74 82 -279 136 -387 225 -461 643 -801 1137 -926 115 -29
133 -33 252 -46 80 -9 305 -9 380 1 475 60 889 293 1174 661 106 136 185 270
240 410 16 39 32 79 37 90 12 28 56 199 68 265 18 99 24 163 26 293 4 326 -78
629 -250 922 -16 28 -32 52 -35 55 -3 3 -20 28 -39 55 -50 72 -125 158 -211
243 -264 259 -631 433 -1010 478 -51 6 -307 13 -313 8z"/>
</g>
</svg>
